<mxfile host="app.diagrams.net" modified="2023-06-19T00:56:26.701Z" agent="Mozilla/5.0 (Macintosh; Intel Mac OS X 10_15_7) AppleWebKit/537.36 (KHTML, like Gecko) Chrome/113.0.0.0 Safari/537.36 Edg/113.0.1774.57" version="21.5.0" etag="w1xDpZAcZhlTH6uby6sR" type="github">
  <diagram name="第 1 页" id="dwjK0Ym9ksIbtOx5hCUP">
    <mxGraphModel>
      <root>
        <mxCell id="0" />
        <mxCell id="1" parent="0" />
      </root>
    </mxGraphModel>
  </diagram>
</mxfile>
